<?xml version="1.0" encoding="UTF-8" standalone="no"?>
<!DOCTYPE svg PUBLIC "-//W3C//DTD SVG 1.1//EN"
 "http://www.w3.org/Graphics/SVG/1.1/DTD/svg11.dtd">
<!-- Generated by graphviz version 2.44.0 (20200408.0750)
 -->
<!-- Title: G Pages: 1 -->
<svg width="378pt" height="880pt"
 viewBox="0.00 0.00 377.50 880.00" xmlns="http://www.w3.org/2000/svg" xmlns:xlink="http://www.w3.org/1999/xlink">
<g id="graph0" class="graph" transform="scale(1 1) rotate(0) translate(4 876)">
<title>G</title>
<polygon fill="white" stroke="transparent" points="-4,4 -4,-876 373.5,-876 373.5,4 -4,4"/>
<g id="clust1" class="cluster">
<title>cluster_Global</title>
<path fill="none" stroke="gray" d="M20,-8C20,-8 349.5,-8 349.5,-8 355.5,-8 361.5,-14 361.5,-20 361.5,-20 361.5,-852 361.5,-852 361.5,-858 355.5,-864 349.5,-864 349.5,-864 20,-864 20,-864 14,-864 8,-858 8,-852 8,-852 8,-20 8,-20 8,-14 14,-8 20,-8"/>
<text text-anchor="middle" x="184.75" y="-851.2" font-family="Times,serif" font-size="11.00" fill="gray">Global</text>
</g>
<g id="clust2" class="cluster">
<title>cluster_\IMHR</title>
<path fill="none" stroke="gray" d="M28,-16C28,-16 341.5,-16 341.5,-16 347.5,-16 353.5,-22 353.5,-28 353.5,-28 353.5,-824 353.5,-824 353.5,-830 347.5,-836 341.5,-836 341.5,-836 28,-836 28,-836 22,-836 16,-830 16,-824 16,-824 16,-28 16,-28 16,-22 22,-16 28,-16"/>
<text text-anchor="middle" x="184.75" y="-823.2" font-family="Times,serif" font-size="11.00" fill="gray">IMHR</text>
</g>
<g id="clust3" class="cluster">
<title>cluster_\IMHR\Wrappers</title>
<path fill="none" stroke="gray" d="M36,-24C36,-24 333.5,-24 333.5,-24 339.5,-24 345.5,-30 345.5,-36 345.5,-36 345.5,-796 345.5,-796 345.5,-802 339.5,-808 333.5,-808 333.5,-808 36,-808 36,-808 30,-808 24,-802 24,-796 24,-796 24,-36 24,-36 24,-30 30,-24 36,-24"/>
<text text-anchor="middle" x="184.75" y="-795.2" font-family="Times,serif" font-size="11.00" fill="gray">Wrappers</text>
</g>
<g id="clust4" class="cluster">
<title>cluster_\IMHR\Wrappers\Spreadsheet</title>
<path fill="none" stroke="gray" d="M44,-32C44,-32 325.5,-32 325.5,-32 331.5,-32 337.5,-38 337.5,-44 337.5,-44 337.5,-768 337.5,-768 337.5,-774 331.5,-780 325.5,-780 325.5,-780 44,-780 44,-780 38,-780 32,-774 32,-768 32,-768 32,-44 32,-44 32,-38 38,-32 44,-32"/>
<text text-anchor="middle" x="184.75" y="-767.2" font-family="Times,serif" font-size="11.00" fill="gray">Spreadsheet</text>
</g>
<g id="clust5" class="cluster">
<title>cluster_\IMHR\Wrappers\Spreadsheet\Styles</title>
<path fill="none" stroke="gray" d="M52,-248C52,-248 317.5,-248 317.5,-248 323.5,-248 329.5,-254 329.5,-260 329.5,-260 329.5,-740 329.5,-740 329.5,-746 323.5,-752 317.5,-752 317.5,-752 52,-752 52,-752 46,-752 40,-746 40,-740 40,-740 40,-260 40,-260 40,-254 46,-248 52,-248"/>
<text text-anchor="middle" x="184.75" y="-739.2" font-family="Times,serif" font-size="11.00" fill="gray">Styles</text>
</g>
<!-- \\IMHR\\Wrappers\\Spreadsheet\\Styles\\VAlign -->
<g id="node1" class="node">
<title>\\IMHR\\Wrappers\\Spreadsheet\\Styles\\VAlign</title>
<polygon fill="none" stroke="black" points="304.5,-724 247.5,-724 247.5,-688 304.5,-688 304.5,-724"/>
<text text-anchor="middle" x="276" y="-703.2" font-family="Courier,monospace" font-size="11.00">VAlign</text>
</g>
<!-- \\IMHR\\Wrappers\\Spreadsheet\\Styles\\Style -->
<g id="node2" class="node">
<title>\\IMHR\\Wrappers\\Spreadsheet\\Styles\\Style</title>
<polygon fill="none" stroke="black" points="303,-670 249,-670 249,-634 303,-634 303,-670"/>
<text text-anchor="middle" x="276" y="-649.2" font-family="Courier,monospace" font-size="11.00">Style</text>
</g>
<!-- \\IMHR\\Wrappers\\Spreadsheet\\Styles\\Color -->
<g id="node3" class="node">
<title>\\IMHR\\Wrappers\\Spreadsheet\\Styles\\Color</title>
<polygon fill="none" stroke="black" points="303,-616 249,-616 249,-580 303,-580 303,-616"/>
<text text-anchor="middle" x="276" y="-595.2" font-family="Courier,monospace" font-size="11.00">Color</text>
</g>
<!-- \\IMHR\\Wrappers\\Spreadsheet\\Styles\\StyleTemplate -->
<g id="node8" class="node">
<title>\\IMHR\\Wrappers\\Spreadsheet\\Styles\\StyleTemplate</title>
<polygon fill="none" stroke="black" points="152,-454 48,-454 48,-418 152,-418 152,-454"/>
<text text-anchor="start" x="66" y="-439.2" font-family="Courier,monospace" font-size="11.00">«abstract»</text>
<text text-anchor="start" x="56" y="-427.2" font-family="Courier,monospace" font-size="11.00">StyleTemplate</text>
</g>
<!-- \\IMHR\\Wrappers\\Spreadsheet\\Styles\\Color&#45;&gt;\\IMHR\\Wrappers\\Spreadsheet\\Styles\\StyleTemplate -->
<g id="edge1" class="edge">
<title>\\IMHR\\Wrappers\\Spreadsheet\\Styles\\Color&#45;&gt;\\IMHR\\Wrappers\\Spreadsheet\\Styles\\StyleTemplate</title>
<path fill="none" stroke="black" d="M248.78,-586.31C240.48,-582.05 231.52,-576.83 224,-571 182.26,-538.65 142.77,-491.25 120.27,-462.07"/>
<polygon fill="none" stroke="black" points="122.96,-459.83 114.11,-454 117.39,-464.08 122.96,-459.83"/>
</g>
<!-- \\IMHR\\Wrappers\\Spreadsheet\\Styles\\FontSize -->
<g id="node4" class="node">
<title>\\IMHR\\Wrappers\\Spreadsheet\\Styles\\FontSize</title>
<polygon fill="none" stroke="black" points="311.5,-562 240.5,-562 240.5,-526 311.5,-526 311.5,-562"/>
<text text-anchor="middle" x="276" y="-541.2" font-family="Courier,monospace" font-size="11.00">FontSize</text>
</g>
<!-- \\IMHR\\Wrappers\\Spreadsheet\\Styles\\FontSize&#45;&gt;\\IMHR\\Wrappers\\Spreadsheet\\Styles\\StyleTemplate -->
<g id="edge2" class="edge">
<title>\\IMHR\\Wrappers\\Spreadsheet\\Styles\\FontSize&#45;&gt;\\IMHR\\Wrappers\\Spreadsheet\\Styles\\StyleTemplate</title>
<path fill="none" stroke="black" d="M240.46,-526.29C234.91,-523.28 229.26,-520.11 224,-517 193.43,-498.9 159.82,-476.59 135.46,-459.97"/>
<polygon fill="none" stroke="black" points="137.16,-456.89 126.93,-454.12 133.2,-462.66 137.16,-456.89"/>
</g>
<!-- \\IMHR\\Wrappers\\Spreadsheet\\Styles\\FontStyle -->
<g id="node5" class="node">
<title>\\IMHR\\Wrappers\\Spreadsheet\\Styles\\FontStyle</title>
<polygon fill="none" stroke="black" points="314.5,-508 237.5,-508 237.5,-472 314.5,-472 314.5,-508"/>
<text text-anchor="middle" x="276" y="-487.2" font-family="Courier,monospace" font-size="11.00">FontStyle</text>
</g>
<!-- \\IMHR\\Wrappers\\Spreadsheet\\Styles\\FontStyle&#45;&gt;\\IMHR\\Wrappers\\Spreadsheet\\Styles\\StyleTemplate -->
<g id="edge3" class="edge">
<title>\\IMHR\\Wrappers\\Spreadsheet\\Styles\\FontStyle&#45;&gt;\\IMHR\\Wrappers\\Spreadsheet\\Styles\\StyleTemplate</title>
<path fill="none" stroke="black" d="M237.24,-478.28C215.27,-471.46 187.05,-462.71 162,-454.93"/>
<polygon fill="none" stroke="black" points="162.8,-451.52 152.22,-451.89 160.73,-458.2 162.8,-451.52"/>
</g>
<!-- \\IMHR\\Wrappers\\Spreadsheet\\Styles\\Font -->
<g id="node6" class="node">
<title>\\IMHR\\Wrappers\\Spreadsheet\\Styles\\Font</title>
<polygon fill="none" stroke="black" points="303,-454 249,-454 249,-418 303,-418 303,-454"/>
<text text-anchor="middle" x="276" y="-433.2" font-family="Courier,monospace" font-size="11.00">Font</text>
</g>
<!-- \\IMHR\\Wrappers\\Spreadsheet\\Styles\\Font&#45;&gt;\\IMHR\\Wrappers\\Spreadsheet\\Styles\\StyleTemplate -->
<g id="edge4" class="edge">
<title>\\IMHR\\Wrappers\\Spreadsheet\\Styles\\Font&#45;&gt;\\IMHR\\Wrappers\\Spreadsheet\\Styles\\StyleTemplate</title>
<path fill="none" stroke="black" d="M248.95,-436C226.14,-436 192.09,-436 162.4,-436"/>
<polygon fill="none" stroke="black" points="162.11,-432.5 152.11,-436 162.11,-439.5 162.11,-432.5"/>
</g>
<!-- \\IMHR\\Wrappers\\Spreadsheet\\Styles\\Border -->
<g id="node7" class="node">
<title>\\IMHR\\Wrappers\\Spreadsheet\\Styles\\Border</title>
<polygon fill="none" stroke="black" points="304.5,-400 247.5,-400 247.5,-364 304.5,-364 304.5,-400"/>
<text text-anchor="middle" x="276" y="-379.2" font-family="Courier,monospace" font-size="11.00">Border</text>
</g>
<!-- \\IMHR\\Wrappers\\Spreadsheet\\Styles\\Border&#45;&gt;\\IMHR\\Wrappers\\Spreadsheet\\Styles\\StyleTemplate -->
<g id="edge5" class="edge">
<title>\\IMHR\\Wrappers\\Spreadsheet\\Styles\\Border&#45;&gt;\\IMHR\\Wrappers\\Spreadsheet\\Styles\\StyleTemplate</title>
<path fill="none" stroke="black" d="M247.43,-390.56C224.53,-397.66 191.1,-408.04 161.97,-417.08"/>
<polygon fill="none" stroke="black" points="160.79,-413.78 152.27,-420.09 162.86,-420.47 160.79,-413.78"/>
</g>
<!-- \\IMHR\\Wrappers\\Spreadsheet\\Styles\\HAlign -->
<g id="node9" class="node">
<title>\\IMHR\\Wrappers\\Spreadsheet\\Styles\\HAlign</title>
<polygon fill="none" stroke="black" points="304.5,-346 247.5,-346 247.5,-310 304.5,-310 304.5,-346"/>
<text text-anchor="middle" x="276" y="-325.2" font-family="Courier,monospace" font-size="11.00">HAlign</text>
</g>
<!-- \\IMHR\\Wrappers\\Spreadsheet\\Styles\\HAlign&#45;&gt;\\IMHR\\Wrappers\\Spreadsheet\\Styles\\StyleTemplate -->
<g id="edge6" class="edge">
<title>\\IMHR\\Wrappers\\Spreadsheet\\Styles\\HAlign&#45;&gt;\\IMHR\\Wrappers\\Spreadsheet\\Styles\\StyleTemplate</title>
<path fill="none" stroke="black" d="M247.47,-341.96C239.79,-346.02 231.5,-350.56 224,-355 193.43,-373.1 159.82,-395.41 135.46,-412.03"/>
<polygon fill="none" stroke="black" points="133.2,-409.34 126.93,-417.88 137.16,-415.11 133.2,-409.34"/>
</g>
<!-- \\IMHR\\Wrappers\\Spreadsheet\\Styles\\BorderStyle -->
<g id="node10" class="node">
<title>\\IMHR\\Wrappers\\Spreadsheet\\Styles\\BorderStyle</title>
<polygon fill="none" stroke="black" points="321.5,-292 230.5,-292 230.5,-256 321.5,-256 321.5,-292"/>
<text text-anchor="middle" x="276" y="-271.2" font-family="Courier,monospace" font-size="11.00">BorderStyle</text>
</g>
<!-- \\IMHR\\Wrappers\\Spreadsheet\\Styles\\BorderStyle&#45;&gt;\\IMHR\\Wrappers\\Spreadsheet\\Styles\\StyleTemplate -->
<g id="edge7" class="edge">
<title>\\IMHR\\Wrappers\\Spreadsheet\\Styles\\BorderStyle&#45;&gt;\\IMHR\\Wrappers\\Spreadsheet\\Styles\\StyleTemplate</title>
<path fill="none" stroke="black" d="M237.3,-292.03C232.67,-294.8 228.12,-297.81 224,-301 182.26,-333.35 142.77,-380.75 120.27,-409.93"/>
<polygon fill="none" stroke="black" points="117.39,-407.92 114.11,-418 122.96,-412.17 117.39,-407.92"/>
</g>
<!-- \\IMHR\\Wrappers\\Spreadsheet\\Column -->
<g id="node11" class="node">
<title>\\IMHR\\Wrappers\\Spreadsheet\\Column</title>
<polygon fill="none" stroke="black" points="304.5,-238 247.5,-238 247.5,-202 304.5,-202 304.5,-238"/>
<text text-anchor="middle" x="276" y="-217.2" font-family="Courier,monospace" font-size="11.00">Column</text>
</g>
<!-- \\IMHR\\Wrappers\\Spreadsheet\\ColumnFormats -->
<g id="node12" class="node">
<title>\\IMHR\\Wrappers\\Spreadsheet\\ColumnFormats</title>
<polygon fill="none" stroke="black" points="328,-184 224,-184 224,-148 328,-148 328,-184"/>
<text text-anchor="middle" x="276" y="-163.2" font-family="Courier,monospace" font-size="11.00">ColumnFormats</text>
</g>
<!-- \\IMHR\\Wrappers\\Spreadsheet\\Worksheet -->
<g id="node13" class="node">
<title>\\IMHR\\Wrappers\\Spreadsheet\\Worksheet</title>
<polygon fill="none" stroke="black" points="314.5,-130 237.5,-130 237.5,-94 314.5,-94 314.5,-130"/>
<text text-anchor="middle" x="276" y="-109.2" font-family="Courier,monospace" font-size="11.00">Worksheet</text>
</g>
<!-- \\IMHR\\Wrappers\\Spreadsheet\\IMHRWorkbook -->
<g id="node14" class="node">
<title>\\IMHR\\Wrappers\\Spreadsheet\\IMHRWorkbook</title>
<polygon fill="none" stroke="black" points="325,-76 227,-76 227,-40 325,-40 325,-76"/>
<text text-anchor="middle" x="276" y="-55.2" font-family="Courier,monospace" font-size="11.00">IMHRWorkbook</text>
</g>
</g>
</svg>
